<?xml version="1.0" encoding="UTF-8"?>
<!DOCTYPE svg PUBLIC "-//W3C//DTD SVG 1.1//EN" "http://www.w3.org/Graphics/SVG/1.1/DTD/svg11.dtd">
<svg version="1.1" xmlns="http://www.w3.org/2000/svg" xmlns:xlink="http://www.w3.org/1999/xlink" x="0px" y="0px" width="200" height="290" viewBox="0, 0, 40, 58">
  <g id="Background">
    <rect x="0" y="0" width="40" height="58" fill="#000000" fill-opacity="0"/>
  </g>
  <g id="Layer 1">
    <path d="M7.962,12.329 C4.894,12.329 2.407,9.842 2.407,6.774 C2.407,3.707 4.894,1.22 7.962,1.22 C11.029,1.22 13.516,3.707 13.516,6.774 C13.516,9.842 11.029,12.329 7.962,12.329 z" fill="#BE1F27"/>
    <path d="M17.368,1.22 L23.29,1.22 C24.812,1.22 26.046,2.429 26.046,3.921 L26.046,10.277 C26.046,11.769 24.812,12.978 23.29,12.978 L17.368,12.978 C15.847,12.978 14.613,11.769 14.613,10.277 L14.613,3.921 C14.613,2.429 15.847,1.22 17.368,1.22 z" fill="#56C627"/>
    <path d="M29.506,1.22 L35.428,1.22 C36.95,1.22 38.183,2.429 38.183,3.921 L38.183,10.277 C38.183,11.769 36.95,12.978 35.428,12.978 L29.506,12.978 C27.984,12.978 26.751,11.769 26.751,10.277 L26.751,3.921 C26.751,2.429 27.984,1.22 29.506,1.22 z" fill="#56C627"/>
    <path d="M5.001,25.528 L10.922,25.528 C12.444,25.528 13.678,26.738 13.678,28.23 L13.678,34.585 C13.678,36.077 12.444,37.287 10.922,37.287 L5.001,37.287 C3.479,37.287 2.246,36.077 2.246,34.585 L2.246,28.23 C2.246,26.738 3.479,25.528 5.001,25.528 z" fill="#56C627"/>
    <path d="M17.368,13.446 L23.29,13.446 C24.812,13.446 26.046,14.656 26.046,16.148 L26.046,22.503 C26.046,23.995 24.812,25.204 23.29,25.204 L17.368,25.204 C15.847,25.204 14.613,23.995 14.613,22.503 L14.613,16.148 C14.613,14.656 15.847,13.446 17.368,13.446 z" fill="#56C627"/>
    <path d="M29.506,25.528 L35.428,25.528 C36.95,25.528 38.183,26.738 38.183,28.23 L38.183,34.585 C38.183,36.077 36.95,37.287 35.428,37.287 L29.506,37.287 C27.984,37.287 26.751,36.077 26.751,34.585 L26.751,28.23 C26.751,26.738 27.984,25.528 29.506,25.528 z" fill="#56C627"/>
    <path d="M17.335,37.636 L23.256,37.636 C24.778,37.636 26.011,38.846 26.011,40.338 L26.011,46.693 C26.011,48.185 24.778,49.395 23.256,49.395 L17.335,49.395 C15.813,49.395 14.58,48.185 14.58,46.693 L14.58,40.338 C14.58,38.846 15.813,37.636 17.335,37.636 z" fill="#56C627"/>
    <path d="M5.001,37.636 L10.922,37.636 C12.444,37.636 13.678,38.846 13.678,40.338 L13.678,46.693 C13.678,48.185 12.444,49.395 10.922,49.395 L5.001,49.395 C3.479,49.395 2.246,48.185 2.246,46.693 L2.246,40.338 C2.246,38.846 3.479,37.636 5.001,37.636 z" fill="#56C627"/>
    <path d="M5.001,13.446 L10.922,13.446 C12.444,13.446 13.678,14.656 13.678,16.148 L13.678,22.503 C13.678,23.995 12.444,25.204 10.922,25.204 L5.001,25.204 C3.479,25.204 2.246,23.995 2.246,22.503 L2.246,16.148 C2.246,14.656 3.479,13.446 5.001,13.446 z" fill="#56C627"/>
    <path d="M17.368,25.528 L23.29,25.528 C24.812,25.528 26.046,26.738 26.046,28.23 L26.046,34.585 C26.046,36.077 24.812,37.287 23.29,37.287 L17.368,37.287 C15.847,37.287 14.613,36.077 14.613,34.585 L14.613,28.23 C14.613,26.738 15.847,25.528 17.368,25.528 z" fill="#56C627"/>
    <path d="M2.246,50.812 L6.942,50.812 L6.942,52.047 L5.366,52.047 L5.366,55.812 L3.821,55.812 L3.821,52.047 L2.246,52.047 z M7.702,50.812 L9.25,50.812 L9.25,55.812 L7.702,55.812 z M13.435,54.986 L11.675,54.986 L11.433,55.812 L9.854,55.812 L11.733,50.812 L13.418,50.812 L15.297,55.812 L13.68,55.812 z M13.111,53.905 L12.558,52.108 L12.009,53.905 z M15.802,50.812 L17.244,50.812 L19.127,53.578 L19.127,50.812 L20.583,50.812 L20.583,55.812 L19.127,55.812 L17.254,53.066 L17.254,55.812 L15.802,55.812 z M24.123,54.001 L24.123,52.961 L26.51,52.961 L26.51,55.092 Q25.824,55.559 25.298,55.728 Q24.771,55.897 24.048,55.897 Q23.158,55.897 22.597,55.593 Q22.036,55.29 21.727,54.69 Q21.418,54.089 21.418,53.312 Q21.418,52.493 21.756,51.888 Q22.094,51.283 22.745,50.969 Q23.253,50.727 24.112,50.727 Q24.941,50.727 25.352,50.877 Q25.763,51.027 26.034,51.342 Q26.305,51.658 26.442,52.142 L24.951,52.408 Q24.859,52.125 24.639,51.975 Q24.419,51.825 24.078,51.825 Q23.57,51.825 23.268,52.178 Q22.967,52.531 22.967,53.295 Q22.967,54.107 23.272,54.454 Q23.577,54.802 24.123,54.802 Q24.382,54.802 24.617,54.727 Q24.853,54.652 25.156,54.471 L25.156,54.001 z M30.681,50.812 L32.222,50.812 L32.222,53.793 Q32.222,54.236 32.084,54.63 Q31.946,55.024 31.651,55.319 Q31.356,55.614 31.032,55.733 Q30.582,55.9 29.951,55.9 Q29.586,55.9 29.155,55.849 Q28.723,55.798 28.433,55.646 Q28.143,55.495 27.903,55.215 Q27.663,54.935 27.574,54.639 Q27.431,54.161 27.431,53.793 L27.431,50.812 L28.972,50.812 L28.972,53.864 Q28.972,54.274 29.199,54.504 Q29.426,54.734 29.828,54.734 Q30.227,54.734 30.454,54.507 Q30.681,54.28 30.681,53.864 z M36.321,54.986 L34.562,54.986 L34.32,55.812 L32.741,55.812 L34.62,50.812 L36.304,50.812 L38.183,55.812 L36.567,55.812 z M35.997,53.905 L35.445,52.108 L34.896,53.905 z M35.418,49.489 L36.611,49.489 L35.51,50.509 L34.845,50.509 z" fill="#000000"/>
  </g>
  <defs/>
</svg>
